<svg xmlns="http://www.w3.org/2000/svg" viewBox="0 0 535.72 187.83"><defs><style>.cls-1{fill:#9e1f63;}.cls-2,.cls-3,.cls-4{fill:#1b75bc;}.cls-3{opacity:0.7;}.cls-4{opacity:0.85;}.cls-5{opacity:0.8;}.cls-6,.cls-7{fill:#fff;}.cls-7{fill-rule:evenodd;}</style></defs><title>Asset 3</title><g id="Layer_2" data-name="Layer 2"><g id="Layer_1-2" data-name="Layer 1"><path class="cls-1" d="M225.44,99.53a58.73,58.73,0,0,1-.93,8.79,26.22,26.22,0,0,1-2.43,7.1,25.23,25.23,0,0,1-4.68,6.23,30.42,30.42,0,0,1-10.15,6.73,31.72,31.72,0,0,1-24.06,0A30.32,30.32,0,0,1,173,121.65a25.49,25.49,0,0,1-4.68-6.23,26.22,26.22,0,0,1-2.43-7.1,58.73,58.73,0,0,1-.93-8.79q-.19-4.92-.19-13.89t.19-13.9a58.59,58.59,0,0,1,.93-8.78,26.17,26.17,0,0,1,2.43-7.11A25.49,25.49,0,0,1,173,49.62a30.47,30.47,0,0,1,10.15-6.73,31.72,31.72,0,0,1,24.06,0,30.57,30.57,0,0,1,10.15,6.73,25.23,25.23,0,0,1,4.68,6.23A26.17,26.17,0,0,1,224.51,63a58.59,58.59,0,0,1,.93,8.78q.19,4.92.19,13.9T225.44,99.53Zm-6.73-26.79a54.17,54.17,0,0,0-.87-8.16,23.17,23.17,0,0,0-2.06-6.17,20,20,0,0,0-3.74-5,24.08,24.08,0,0,0-33.64,0,20,20,0,0,0-3.74,5,23.17,23.17,0,0,0-2.06,6.17,52.9,52.9,0,0,0-.87,8.16q-.19,4.67-.19,12.9t.19,12.9a53.18,53.18,0,0,0,.87,8.16,23.3,23.3,0,0,0,2.06,6.17,19.91,19.91,0,0,0,3.74,5,24.05,24.05,0,0,0,33.64,0,19.91,19.91,0,0,0,3.74-5,23.3,23.3,0,0,0,2.06-6.17,54.47,54.47,0,0,0,.87-8.16q.19-4.68.19-12.9T218.71,72.74Z"/><path class="cls-1" d="M271.49,126q-6.48,4.8-17.57,4.8-15.33,0-24.3-8.6l4.36-4.36q7,7.35,19.69,7.35,18.06,0,18.07-12.21,0-9-11.47-10.09l-5.48-.5L250.3,102q-18.06-1.48-18.07-15.7a15.07,15.07,0,0,1,5.86-12.4q5.85-4.68,15.7-4.67a39.33,39.33,0,0,1,11.59,1.68,30.59,30.59,0,0,1,9.47,4.67l-4.23,4.24a27.71,27.71,0,0,0-16.83-5.11q-7.35,0-11.34,3a10.14,10.14,0,0,0-4,8.54q0,4.74,2.93,7.1t9.29,3l4.86.38,4.86.5q8.48.75,13,4.17T278,112.93A15.34,15.34,0,0,1,271.49,126Z"/><path class="cls-1" d="M364.33,130V92.74q0-8.71-4.24-13.33t-12.33-4.62q-7.74,0-12.34,4.55t-4.61,12.28V130h-6.36V92.74q0-8.71-4.23-13.33t-12.34-4.62q-8,0-12.47,4.74t-4.48,13.21V130h-6.36V69.94h6.36V77q6.72-7.86,17.82-7.85A23.12,23.12,0,0,1,320.4,72a19.24,19.24,0,0,1,7.67,8.16q7-11,20.43-11,9.86,0,15.83,5.73,6.23,6,6.23,16.7V130Z"/><path class="cls-1" d="M424.84,113.68a23.37,23.37,0,0,1-45.24,0A55.45,55.45,0,0,1,378,100a55.45,55.45,0,0,1,1.56-13.71,22.26,22.26,0,0,1,5.92-10.47,23.37,23.37,0,0,1,39.32,10.47A56,56,0,0,1,426.39,100,56,56,0,0,1,424.84,113.68ZM419,88.25a16,16,0,0,0-4.36-8.35,17.76,17.76,0,0,0-24.93,0,16,16,0,0,0-4.36,8.35,60.83,60.83,0,0,0-1,11.72,60.65,60.65,0,0,0,1,11.71,16,16,0,0,0,4.36,8.35,17.76,17.76,0,0,0,24.93,0,16,16,0,0,0,4.36-8.35A60.65,60.65,0,0,0,420,100,60.83,60.83,0,0,0,419,88.25Z"/><path class="cls-1" d="M474.5,130V92.74q0-8.71-4.24-13.33t-12.34-4.62q-8,0-12.46,4.74T441,92.74V130h-6.35V69.94H441V77q6.73-7.86,17.7-7.85,10.09,0,15.95,5.73,6.22,6,6.23,16.7V130Z"/><path class="cls-1" d="M528.58,130v-7.72a19.52,19.52,0,0,1-7.91,6.66,25.32,25.32,0,0,1-9.91,1.81,24.28,24.28,0,0,1-8.47-1.43,17,17,0,0,1-6.23-3.8,23.4,23.4,0,0,1-6-10.85,57.66,57.66,0,0,1-1.74-14.7,57.8,57.8,0,0,1,1.74-14.71,23.41,23.41,0,0,1,6-10.84,17,17,0,0,1,6.23-3.8,24.28,24.28,0,0,1,8.47-1.43,25.5,25.5,0,0,1,9.91,1.8,19.63,19.63,0,0,1,7.91,6.67V41.27h6.36V130ZM528,90.37a25.48,25.48,0,0,0-2.43-7.91,13.62,13.62,0,0,0-5.24-5.61,19.23,19.23,0,0,0-17.32,0,13.6,13.6,0,0,0-5.23,5.61,25,25,0,0,0-2.43,7.91,73.38,73.38,0,0,0,0,19.19,24.94,24.94,0,0,0,2.43,7.92,13.6,13.6,0,0,0,5.23,5.61,19.32,19.32,0,0,0,17.32,0,13.62,13.62,0,0,0,5.24-5.61,25.46,25.46,0,0,0,2.43-7.92,74.56,74.56,0,0,0,0-19.19Z"/><path class="cls-2" d="M316.18,176.61V142.75h20.54V145h-18v13.36h15.31v2.29H318.75v13.64h18v2.29Z"/><path class="cls-2" d="M354.51,157.35a6.41,6.41,0,0,0-2-1.43,6.31,6.31,0,0,0-2.35-.38,5.49,5.49,0,0,0-4.49,2,7.53,7.53,0,0,0-1.64,4.92v14.13h-2.43V153.69h2.43v3a6.7,6.7,0,0,1,2.8-2.45,8.75,8.75,0,0,1,3.9-.88,8.5,8.5,0,0,1,3,.5,7.28,7.28,0,0,1,2.5,1.69Z"/><path class="cls-2" d="M371,185.07a8.78,8.78,0,0,1-6.87,2.76,10.46,10.46,0,0,1-4.06-.67,12.55,12.55,0,0,1-3.5-2.38l1.62-1.61a11.54,11.54,0,0,0,2.73,2,7.63,7.63,0,0,0,3.21.57,6.24,6.24,0,0,0,5.21-2.19,9,9,0,0,0,1.73-5.75v-4.09a7.46,7.46,0,0,1-3,2.54,9.66,9.66,0,0,1-3.78.69,9.09,9.09,0,0,1-3.23-.55,6.44,6.44,0,0,1-2.38-1.45,8.83,8.83,0,0,1-2.28-4.13,23.82,23.82,0,0,1,0-11.22,8.86,8.86,0,0,1,2.28-4.14A6.57,6.57,0,0,1,361,154a9.09,9.09,0,0,1,3.23-.55,9.66,9.66,0,0,1,3.78.69,7.46,7.46,0,0,1,3,2.54v-2.94h2.43v24.2A10.26,10.26,0,0,1,371,185.07Zm-.16-23.59a9.63,9.63,0,0,0-.93-3,5.16,5.16,0,0,0-2-2.14,7.31,7.31,0,0,0-6.61,0,5.07,5.07,0,0,0-2,2.14,9.63,9.63,0,0,0-.93,3,28.1,28.1,0,0,0,0,7.33,9.69,9.69,0,0,0,.93,3,5.19,5.19,0,0,0,2,2.14,7.39,7.39,0,0,0,6.61,0,5.28,5.28,0,0,0,2-2.14,9.69,9.69,0,0,0,.93-3,29.32,29.32,0,0,0,0-7.33Z"/><path class="cls-2" d="M396.85,170.38a8.92,8.92,0,0,1-17.26,0,23.09,23.09,0,0,1,0-10.46,8.45,8.45,0,0,1,2.26-4,9.31,9.31,0,0,1,12.74,0,8.54,8.54,0,0,1,2.26,4,23.48,23.48,0,0,1,0,10.46Zm-2.21-9.7a6.12,6.12,0,0,0-1.67-3.19,6.77,6.77,0,0,0-9.51,0,6.11,6.11,0,0,0-1.66,3.19,26.48,26.48,0,0,0,0,8.94,6.08,6.08,0,0,0,1.66,3.18,6.77,6.77,0,0,0,9.51,0,6.09,6.09,0,0,0,1.67-3.18,26.48,26.48,0,0,0,0-8.94Z"/><path class="cls-2" d="M418.17,176.61V162.39a7.25,7.25,0,0,0-1.61-5.09,6.1,6.1,0,0,0-4.71-1.76,6.2,6.2,0,0,0-4.75,1.81,7,7,0,0,0-1.72,5v14.22H403V153.69h2.42v2.71a8.48,8.48,0,0,1,6.76-3A7.89,7.89,0,0,1,420.6,162v14.65Z"/><path class="cls-2" d="M443.69,170.38a8.55,8.55,0,0,1-2.26,4,9.32,9.32,0,0,1-12.75,0,8.55,8.55,0,0,1-2.26-4,23.48,23.48,0,0,1,0-10.46,8.54,8.54,0,0,1,2.26-4,9.32,9.32,0,0,1,12.75,0,8.54,8.54,0,0,1,2.26,4,23.48,23.48,0,0,1,0,10.46Zm-2.22-9.7a6,6,0,0,0-1.66-3.19,6.77,6.77,0,0,0-9.51,0,6,6,0,0,0-1.66,3.19,26.48,26.48,0,0,0,0,8.94,6,6,0,0,0,1.66,3.18,6.77,6.77,0,0,0,9.51,0,6,6,0,0,0,1.66-3.18,26.48,26.48,0,0,0,0-8.94Z"/><path class="cls-2" d="M480.23,176.61V162.39a7.25,7.25,0,0,0-1.62-5.09,6.1,6.1,0,0,0-4.71-1.76,6.43,6.43,0,0,0-4.71,1.74,6.28,6.28,0,0,0-1.75,4.68v14.65H465V162.39a7.25,7.25,0,0,0-1.62-5.09,6.06,6.06,0,0,0-4.7-1.76,6.23,6.23,0,0,0-4.76,1.81,7,7,0,0,0-1.71,5v14.22h-2.43V153.69h2.43v2.71a8.51,8.51,0,0,1,6.8-3,8.91,8.91,0,0,1,4.45,1.07,7.3,7.3,0,0,1,2.92,3.12,8.66,8.66,0,0,1,7.8-4.19A7.87,7.87,0,0,1,482.6,162v14.65Z"/><path class="cls-2" d="M488.88,145.75v-3h3v3Zm.29,30.86V153.69h2.42v22.92Z"/><path class="cls-2" d="M511.28,176.13a9.79,9.79,0,0,1-4.09.76,9.2,9.2,0,0,1-7.37-3.14q-2.71-3.13-2.71-8.6t2.71-8.61a9.23,9.23,0,0,1,7.37-3.14,10,10,0,0,1,4.09.76,11.31,11.31,0,0,1,3.47,2.76l-1.67,1.52a9.91,9.91,0,0,0-2.76-2.26,7,7,0,0,0-3.13-.64,6.93,6.93,0,0,0-6.09,3,8.14,8.14,0,0,0-1.21,2.74,20.5,20.5,0,0,0,0,7.65,8.14,8.14,0,0,0,1.21,2.74,7.72,7.72,0,0,0,9.22,2.4,9.91,9.91,0,0,0,2.76-2.26l1.67,1.52A11.31,11.31,0,0,1,511.28,176.13Z"/><path class="cls-2" d="M533.24,175.06a11,11,0,0,1-6.7,1.83q-5.85,0-9.27-3.28l1.66-1.66q2.67,2.81,7.51,2.8,6.9,0,6.9-4.66c0-2.28-1.46-3.57-4.38-3.85l-2.09-.19-1.71-.14q-6.9-.57-6.89-6a5.76,5.76,0,0,1,2.23-4.74,9.39,9.39,0,0,1,6-1.78,15.24,15.24,0,0,1,4.42.64,11.78,11.78,0,0,1,3.62,1.79l-1.62,1.61a10.55,10.55,0,0,0-6.42-1.95,7,7,0,0,0-4.33,1.17,3.88,3.88,0,0,0-1.52,3.26,3.31,3.31,0,0,0,1.12,2.71,6.73,6.73,0,0,0,3.54,1.14l1.86.14,1.85.19a9.6,9.6,0,0,1,5,1.59q1.74,1.31,1.74,4.4A5.86,5.86,0,0,1,533.24,175.06Z"/><polygon class="cls-3" points="0 43.93 76.26 87.94 76.26 176.05 0 132.03 0 43.93"/><polygon class="cls-4" points="0.01 43.91 76.23 0 152.52 44.09 76.3 87.99 0.01 43.91"/><polygon class="cls-2" points="152.46 44.02 76.29 88.03 76.29 176.13 152.46 132.11 152.46 44.02"/><g class="cls-5"><polygon class="cls-6" points="24.73 44.12 38.84 52.54 59.65 40.31 45.46 32.11 24.73 44.12"/><polygon class="cls-6" points="43.14 55.1 57.68 63.77 88.39 45.35 73.75 37.02 43.14 55.1"/><polygon class="cls-6" points="110.35 37.33 62.1 66.41 77.07 75.33 125.47 45.7 110.35 37.33"/><path class="cls-7" d="M112.38,77c2.21-1.8,5-3.28,7.22-5.11a12.08,12.08,0,0,0-.38,1.16c-.13-.26-.14.54-.47.42-.14.46-.57.74-.7,1.2a5.22,5.22,0,0,0-.18.56c-.43,1.44-.86,2.88-1.22,4.35-.12.37-.21.76-.3,1.15s-.2.89-.32,1.34l0,0s-.1.21,0,.2a40.33,40.33,0,0,0-.82,5.11h0c0,.11-.07.33,0,.36v.47a1.71,1.71,0,0,0,0,.64V89c0,.1,0,.31,0,.33.14,1.78.89,2.37.89,4.41v.41a1,1,0,0,1,0,.34c-.1.13,0,.11,0,.29a15.2,15.2,0,0,1-1.32,4.5c-.11.21-.2.44-.29.66-.19.39-.33.8-.52,1.19,0-.05,0-.07,0-.05s0,.13,0,.14v.06c-.12.22-.21.46-.32.68v0a4.85,4.85,0,0,0-.29.61c0,.13-.16.24-.18.39s-.21.43-.31.65v0a4.9,4.9,0,0,0-.32.65,7.65,7.65,0,0,0-.32.71c-.21.38-.36.79-.54,1.18a12,12,0,0,0-.46,1.31,2.65,2.65,0,0,0-.09,1.53.43.43,0,0,0,.29.31v0c.08,0,.14.13.26.09a.81.81,0,0,0,.52.06c.06,0,.17,0,.26,0l0,0c0,.06.17,0,.24,0,.28,0,.58-.11.91-.15s.69-.16.79.05a3,3,0,0,1-.17,1.56c-.16.59-.33,1.05-.5,1.54a1.28,1.28,0,0,0-.14.34v0a4.35,4.35,0,0,0-.27.58v0c-.18.37-.48.68-.47,1.13a.92.92,0,0,0,.27.74c.1.14.26.17.39.26a.14.14,0,0,0-.07.14s.08-.06.1-.13a1.52,1.52,0,0,0,.32.06,2,2,0,0,0,1.26-.3c-.2.49-.74,1.07-1,1.63a2.64,2.64,0,0,0-.2.37,3.23,3.23,0,0,0-.37,1.5c0,.12,0,.22.05.25a1.12,1.12,0,0,0,.54.73,5.76,5.76,0,0,1,.69.38,2,2,0,0,1,1,1.62v.44c-.08.78-.34,1.48-.45,2.25a2.1,2.1,0,0,0-.1.51,7.47,7.47,0,0,0-.15,1.28,3,3,0,0,0,0,.85v.09a.73.73,0,0,0,0,.34,2,2,0,0,0,.5,1.18.61.61,0,0,0,.12.15c-.08.07,0,.17,0,.05a.16.16,0,0,1,.13.06.88.88,0,0,0,.32.16c.12,0,.21.09.37,0a.6.6,0,0,0,.37,0,2.52,2.52,0,0,0,.81-.26.84.84,0,0,0,.32-.14l0,0a1.9,1.9,0,0,0,.47-.24,2.57,2.57,0,0,0,.55-.33c.08,0,.26-.17.38-.23l.15-.11a6.8,6.8,0,0,0,1.12-.77l.1-.07a3.38,3.38,0,0,0,.51-.38l0,0c.11-.09.28-.16.35-.27l0,0c.08-.08.23-.13.28-.23a2,2,0,0,0,.35-.27,3.39,3.39,0,0,0,.49-.4l0,0a2.56,2.56,0,0,0,.43-.36l.21-.14c.15-.12.28-.1.3-.28s.1-.05.11-.1a5.76,5.76,0,0,0,.59-.5,1.67,1.67,0,0,0,.31-.27c1.13-1,2.39-2.09,3.56-3.15.39-.35.79-.78,1.15-1,1-.7,1.46-.07,2,.19.09.08.15.19.27.22v0c.08.07.13.2.24.22v0a.72.72,0,0,0,.24.25,2.79,2.79,0,0,0,.29.44c.07.07.09.22.19.24s0,.06,0,.11,0,.15.08.16.12.2.19.3.07.08.08.19,0,.06,0,.18,0-.06.08-.08a35,35,0,0,1,2.2,5.25.78.78,0,0,0,.1.26c0,.07,0,.07,0,.11a.7.7,0,0,0,.11.29c.37,1.31,1.66,3,2,4.42-3.92,2.59-8.62,4.63-12.41,7.14,0,0,0,0,0,0s0,0,0,0-.08,0-.11-.05c-.35-1-.66-2-1-3a.53.53,0,0,0-.07-.25,7.28,7.28,0,0,0-.29-.83c0-.07,0-.06,0-.1-.5-1.48-1-3-1.51-4.43v0a1,1,0,0,0-.13-.36.43.43,0,0,0,0-.18s0-.05,0,0v0a10.85,10.85,0,0,0-.91.6l-1.5,1-1.35.93c-.56.32-1.23.83-1.83,1.22s-1.22.85-1.78,1.2c0-.07-.31.25-.23.06-.1.18-.34.28-.51.42-.37.25-.73.5-1.06.69a3.43,3.43,0,0,0-.49.31c-.27.19-.54.37-.78.51,0,0-.19.11-.27.15a1.7,1.7,0,0,1-.22.15s-.17.11-.24.14c-1.29.91-2.38,1.29-3.11,1.07-.08,0-.09-.09-.2,0-.74-.38-1.27-1.15-1.33-2.82v-.63a9.28,9.28,0,0,1,.93-3.65.71.71,0,0,0,.07-.22,6.4,6.4,0,0,0,.46-1.88v-.09a.68.68,0,0,0,0-.4v-.09a.76.76,0,0,0-.05-.34c0-.07,0-.14,0-.16-.12-.54-.23-.92-.5-1.11s-.91-.11-1-.73v-.32a12.93,12.93,0,0,1,1-2.89c0-.09.1-.14.1-.24s-.1,0-.14,0c-.55.08-1.05.16-1.36-.14,0-.1-.1-.13-.14-.21a1.37,1.37,0,0,1-.15-.47v-.43a6.19,6.19,0,0,1,.19-.77,1.53,1.53,0,0,0,.12-.38,13,13,0,0,0,.86-3.76c0-.65-.24-.91-.57-.9s-.84.38-1.4.72c-1,.6-1.79.77-2.28.44,0-.1-.1-.11-.14-.18a1.76,1.76,0,0,1-.24-.63v-.51c0-.22.08-.46.14-.67a1,1,0,0,0,0-.18,4,4,0,0,0,.19-.48c0-.06.06-.09,0-.15.41-1,.77-2,1.18-3,0-.15.13-.28.16-.44a.37.37,0,0,0,.07-.14c0-.06.07-.09,0-.15a.37.37,0,0,0,.07-.14c0-.06.06-.09.05-.15a1.19,1.19,0,0,0,.11-.26v0c1-2.5,2.17-5,3.28-7.47,0-.07.08-.12.07-.2a.93.93,0,0,0,.12-.27v0a12.89,12.89,0,0,0,1-3.31c0-.71-.34-.75-.55-1a7.64,7.64,0,0,1-.43-.7.62.62,0,0,0-.08-.23c-.05-.15-.08-.35-.14-.5s0-.11,0-.21a3.33,3.33,0,0,0,0-.37v-.4c.08-.68.13-1.37.24-2,0-.06,0-.11,0-.19a1.43,1.43,0,0,0,.07-.37.86.86,0,0,0,0-.27,2.09,2.09,0,0,0,.08-.34.68.68,0,0,0,0-.14q.54-2.37,1.2-4.71c.06-.2.12-.4.17-.6,0,0,0-.09,0-.12s.06-.19.07-.29a.69.69,0,0,0,0-.13v0a2.44,2.44,0,0,0,.14-.46c0-.07.07-.11.05-.19.37-1.1.7-2.21,1.07-3.32a2.5,2.5,0,0,0,.07-.26c.11-.25.17-.52.27-.77a1,1,0,0,0,0-.18,3.31,3.31,0,0,0,.14-.41v0a5,5,0,0,0,.22-.61v0C111.71,78.92,112.05,77.94,112.38,77Zm1.79,38.8c0,.13.1.13.15,0C114.26,115.8,114.26,115.69,114.17,115.76Zm2.38,18.2c-.33.19-.27.28,0,0ZM110.17,138c0,.06-.12.06-.1.12s.1-.07.15-.07V138S110.19,138,110.17,138Zm-3.53-21.53c.09,0,0,.23.07.18S106.73,116.35,106.64,116.5Zm1.29-24.68c0-.11,0,0,.09-.13s-.08,0,0-.14l.07-.06c0-.1,0-.08,0-.2A1.28,1.28,0,0,0,107.93,91.82Z"/><path class="cls-6" d="M20.75,125.86c.19.11,17,4.86,42.26,25,2.89,2.27-.3,6.33-3,4.17-11.19-8.84-26.6-19.66-38.17-22.92-2.7-.8-4-7.16-1.09-6.25Z"/><path class="cls-6" d="M8.21,103.84V90.47h0a40,40,0,0,0,9.45,12.09c-6.37-1.57-9.45,1.28-9.45,1.28Z"/><path class="cls-6" d="M22.21,68.64a143.33,143.33,0,0,1,5.64,38.87c0,11.42-4.48,15.16-4.67,15.24-1.16,2-5.9-2.2-4.74-4.24a10.34,10.34,0,0,0,1.15-3,48.3,48.3,0,0,0,1.16-11.33c0-10.27-1.54-25.3-5-37.2-1-3.28,2.87-3,5.14-.19l.78,1Z"/></g></g></g></svg>